<svg width="24" height="24" viewBox="0 0 24 24" fill="none" xmlns="http://www.w3.org/2000/svg">
<circle cx="12" cy="12" r="11" stroke="#B5ED2C" stroke-width="2"/>
<path d="M5.16312 6.41632C5.62186 5.89559 6.14354 5.4855 6.6325 5.25361C6.87591 5.13821 7.13382 5.05599 7.38644 5.04191C7.64234 5.02772 7.92799 5.083 8.15813 5.28574C8.38828 5.48849 8.47913 5.76489 8.49732 6.02054C8.5152 6.27291 8.46616 6.53914 8.38237 6.79515C8.21399 7.30945 7.87295 7.87867 7.41421 8.3994C6.95555 8.91998 6.43435 9.32954 5.94548 9.56138C5.7019 9.67687 5.44369 9.7598 5.1909 9.77382C4.93504 9.78798 4.64995 9.73195 4.41985 9.52925C4.18975 9.32655 4.09823 9.05079 4.08001 8.79519C4.06204 8.54265 4.11175 8.27604 4.19561 8.01984C4.36396 7.50565 4.70453 6.93697 5.16312 6.41632Z" stroke="#B5ED2C"/>
</svg>
