<svg width="2151" height="77" viewBox="0 0 2151 77" fill="none" xmlns="http://www.w3.org/2000/svg">
<path d="M0.515625 66.2157C69.248 24.822 103.923 -1.61192 228.88 3.89734C228.88 51.1981 323.73 91.7426 361.208 66.2157C441.906 11.251 489.188 -6.69723 580.279 3.89734C580.279 50.4486 677.644 90.2422 721.901 66.2157C810.96 17.8663 849.215 -5.0678 944.07 18.163C944.07 77.4769 1046.75 86.4868 1082.59 66.2157C1159.46 22.7489 1218.64 8.25045 1303.43 18.163C1303.43 66.2157 1369.02 92.5 1445.52 57C1522.02 21.5 1544.92 -1.61192 1669.88 3.89734C1669.88 51.1981 1764.73 91.7426 1802.21 66.2157C1882.91 11.251 1930.19 -6.69723 2021.28 3.89734C2021.28 50.4486 2105.76 90.2422 2150.02 66.2157" stroke="#B5ED2C" stroke-width="2"/>
</svg>
