<svg width="310" height="358" viewBox="0 0 310 358" fill="none" xmlns="http://www.w3.org/2000/svg">
<path d="M127.401 260.075L124.605 257.641L122.418 258.183L127.949 262.285L127.401 260.075Z" fill="#B5ED2C"/>
<path d="M194.346 226.275C188.124 225.315 179.392 234.674 175.804 239.473C185.006 235.628 186.037 224.034 205.506 233.282C201.714 230.889 197.969 228.539 194.346 226.275Z" fill="#B5ED2C"/>
<path fill-rule="evenodd" clip-rule="evenodd" d="M198.008 267.59C194.241 266.048 186.542 262.301 185.884 259.649C182.079 248.082 172.176 245.846 167.701 246.174C182.772 251.507 184.956 263.257 184.164 268.465C188.282 268.391 192.955 268.15 198.008 267.59ZM186.889 263.701L186.792 266.462L190.746 266.654L186.889 263.701Z" fill="#B5ED2C"/>
<path d="M168.635 238.915C161.287 232.908 159.11 225.338 148.813 214.106C142.388 207.098 131.947 200.962 123.842 190.585C122.524 183.121 127.959 166.068 122.244 157.358C114.082 144.917 105.457 133.762 106.948 122.446C108.827 122.729 111.431 122.582 113.295 121.265C110.904 121.597 106.122 121.634 106.126 119.131C106.131 116.002 107.423 111.578 105.5 108.73C89.4493 84.9517 75.8405 44.1473 74.8656 22.8862C73.7133 51.321 83.4421 72.2362 86.4267 86.092C87.4574 86.5572 88.4199 87.3601 89.1672 88.5402C97.2138 101.247 102.907 104.904 103.66 109.186C104.35 113.103 102.307 117.906 103.18 121.425C105.447 140.02 116.137 147.069 120.95 161.589C124.782 173.15 119.445 180.728 121.535 195.457L122.55 193.251C130.536 201.827 140.54 209.292 147.339 216.036C154.591 223.23 159.353 234.56 168.062 241.393C168.211 240.525 168.403 239.699 168.635 238.915Z" fill="#B5ED2C"/>
<path d="M167.701 246.174C167.691 245.213 167.726 244.293 167.803 243.412C165.252 243.262 158.342 241.457 151.113 235.43C156.525 241.273 162.393 246.562 167.701 246.174Z" fill="#B5ED2C"/>
<path d="M46.1711 119.922C19.9163 94.3724 -11.7069 48.6515 6.28337 14.0871M46.1711 119.922C51.6808 124.29 61.711 134.516 63.4254 139.101C66.9036 148.404 66.1435 162.667 69.431 175.926C71.8967 185.871 82.8176 198.411 85.3746 208.723C87.6576 217.931 90.2471 226.672 96.5506 233.32C106.778 244.105 114.054 248.611 124.605 257.641M46.1711 119.922C45.8512 116.918 46.1074 114.839 46.8017 113.51M127.401 260.075L124.605 257.641M127.401 260.075C126.856 259.592 126.319 259.122 125.791 258.663M127.401 260.075L127.949 262.285L122.418 258.183M124.605 257.641C124.996 257.975 125.391 258.316 125.791 258.663M124.605 257.641L122.418 258.183M118.943 259.045L122.523 262.457M118.943 259.045L113.238 261.241M118.943 259.045L122.418 258.183M113.238 261.241L118.382 264.657M113.238 261.241L106.975 267.485C107.443 267.54 107.991 267.612 108.59 267.699M119.107 270.733C117.412 269.282 112.106 268.214 108.59 267.699M108.59 267.699C111.14 271.684 117.179 279.656 120.931 279.664C125.62 279.674 135.827 279.88 139.141 277.494M139.141 277.494C138.873 275.245 139.061 271.039 141.12 268.145M139.141 277.494C150.712 286.354 150.97 296.846 159.514 301.374M139.141 277.494C140.755 280.222 159.852 282.785 169.199 283.725M125.791 258.663C131.357 258.703 137.399 264.482 141.12 268.145M141.12 268.145C141.841 267.13 142.793 266.277 144.035 265.725C150.687 265.773 159.388 267.783 171.617 268.269C174.692 268.392 178.99 268.559 184.164 268.465M159.514 301.374C156.653 307.166 160.687 313.985 174.114 313.002M159.514 301.374C161.854 296.635 170.569 289.25 169.199 283.725M174.114 313.002C179.581 306.694 190.444 292.533 190.16 286.347M174.114 313.002C175.517 317.745 177.841 319.084 180.484 318.211M169.199 283.725C176.935 285.301 183.359 284.124 190.16 286.347M190.16 286.347C192.285 287.042 194.58 288.423 196.775 289.399M196.775 289.399C195.384 300.579 186.974 316.066 180.484 318.211M196.775 289.399C204.677 292.913 218.985 314.387 241.588 317.384M180.484 318.211C188.961 329.014 194.235 335.102 207.914 335.898C219.407 336.567 235.482 346.265 243.035 338.919M243.035 338.919C245.542 342.728 253.15 349.469 263.528 345.958M243.035 338.919C238.769 332.436 238.665 324.49 241.588 317.384M263.528 345.958L263.703 351.388C262.353 352.244 260.443 354.307 263.604 355.713C266.764 357.119 271.669 355.35 276.297 353.348C278.414 352.432 277.96 349.026 274.465 349.11C274.009 347.269 273.829 344.655 278.612 343.782M263.528 345.958C264.398 345.742 267.022 344.846 271.094 342.909M263.528 345.958C263.408 344.945 263.351 342.405 264.09 340.345M278.612 343.782C277.56 342.739 275.591 340.152 276.136 338.14M278.612 343.782C279.311 344.008 280.165 344.245 281.125 344.465M278.612 343.782C278.616 342.362 278.765 340.694 279.118 338.965M276.136 338.14C277.466 334.74 277.144 330.333 276.617 327.856C277.032 327.646 277.501 327.42 278.012 327.184M276.136 338.14C275.472 339.837 274.397 341.283 272.73 342.112C272.162 342.395 271.616 342.661 271.094 342.909M276.136 338.14C274.788 338.605 271.926 339.497 271.264 339.348M296.489 327.229C295.934 325.618 295.132 324.415 294.003 323.936C291.887 323.039 288.506 323.526 285.157 324.491M296.489 327.229L281.125 344.465M296.489 327.229C295.29 326.922 294.166 326.733 293.113 326.65M296.489 327.229C297.033 328.808 297.34 330.778 297.487 332.846M281.125 344.465C282.566 344.795 284.246 345.085 286.004 345.238M279.118 338.965C280.368 332.836 284.174 325.943 293.113 326.65M279.118 338.965L293.113 326.65M297.487 332.846L286.004 345.238M297.487 332.846C297.615 334.647 297.622 336.521 297.558 338.274M286.004 345.238C289.962 345.584 294.31 345.237 297.188 343.086C297.234 342.709 297.278 342.306 297.319 341.88M285.157 324.491C282.554 325.242 279.97 326.28 278.012 327.184M285.157 324.491L282.687 304.066M278.012 327.184L276.144 304.125M297.319 341.88C313.139 336.527 315.286 299.502 282.412 301.789M297.319 341.88C297.424 340.797 297.51 339.568 297.558 338.274M282.412 301.789L282.182 299.891C281.634 297.681 275.841 297.945 275.927 301.442L276.144 304.125M282.412 301.789L282.687 304.066M297.558 338.274C311.835 328.116 307.645 304.916 282.687 304.066M276.144 304.125C274.8 304.598 272.571 305.775 270.454 307.724M265.881 314.488C266.905 311.636 268.638 309.396 270.454 307.724M270.454 307.724C266.266 308.163 257.634 308.636 256.607 307.014M256.607 307.014C259.626 305.013 261.852 304.54 263.692 304.084M256.607 307.014C244.248 315.205 242.637 328.048 247.919 335.362M271.264 339.348L271.094 342.909M271.264 339.348C269.505 338.904 266.131 338.452 264.677 339.561M264.09 340.345C264.205 340.024 264.408 339.766 264.677 339.561M264.09 340.345C256.765 342.161 251.095 339.762 247.919 335.362M263.692 304.084L259.653 300.394M263.692 304.084C265.255 304.609 268.878 304.519 270.872 299.958M259.653 300.394L264.168 294.974M259.653 300.394C257.146 301.253 254.816 302.428 252.698 303.852M270.872 299.958L264.168 294.974M270.872 299.958C272.712 298.981 276.358 296.252 276.217 293.16M264.168 294.974C258.748 292.018 253.4 300.381 246.876 297.698M276.217 293.16L269.053 287.899M276.217 293.16L279.996 287.922C281.102 286.084 276.053 281.472 274.487 283.033L269.053 287.899M269.053 287.899C264.186 284.023 269.8 281.458 266.04 275.744C263.276 271.544 248.188 260.923 230.137 249.088M246.876 297.698C248.31 298.758 251.483 301.473 252.698 303.852M246.876 297.698C236.901 293.148 232.783 288.667 222.807 284.117C219.743 282.719 217.129 280.762 214.773 278.681M252.698 303.852C247.626 307.26 243.766 312.088 241.588 317.384M198.008 267.59C194.241 266.048 186.542 262.301 185.884 259.649C182.079 248.082 172.176 245.846 167.701 246.174M198.008 267.59C201.555 267.197 204.523 269.12 207.581 271.863M198.008 267.59C192.955 268.15 188.282 268.391 184.164 268.465M264.677 339.561C263.341 338.155 261.889 335.56 261.914 332.369M267.708 321.855C263.373 325.558 261.938 329.248 261.914 332.369M261.914 332.369L252.887 331.394M252.887 331.394C251.416 333.778 248.105 335.629 247.919 335.362M252.887 331.394C255.07 327.855 259.29 320.345 258.702 318.614M167.701 246.174C182.772 251.507 184.956 263.257 184.164 268.465M167.701 246.174C167.691 245.213 167.726 244.293 167.803 243.412M167.701 246.174C162.393 246.562 156.525 241.273 151.113 235.43M207.581 271.863C213.548 266.344 224.93 253.096 222.718 244.262M207.581 271.863C209.839 273.889 212.146 276.362 214.773 278.681M222.718 244.262C225.229 245.884 227.71 247.497 230.137 249.088M222.718 244.262C217.05 240.6 211.226 236.892 205.506 233.282M230.137 249.088C230.763 256.341 224.577 270.777 214.773 278.681M194.346 226.275C193.593 225.805 192.846 225.338 192.105 224.876C185.113 224.39 172.205 226.826 168.635 238.915M194.346 226.275C188.124 225.315 179.392 234.674 175.804 239.473C185.006 235.628 186.037 224.034 205.506 233.282M194.346 226.275C197.969 228.539 201.714 230.889 205.506 233.282M109.268 205.145C118.097 216.249 133.057 216.449 141.255 224.581C144.144 227.448 147.529 231.56 151.113 235.43M109.268 205.145C109.434 207.45 109.738 210.893 109.738 210.893M109.268 205.145C107.073 177.463 100.275 172.727 91.7632 164.916M167.803 243.412C165.252 243.262 158.342 241.457 151.113 235.43M167.803 243.412C167.864 242.714 167.951 242.042 168.062 241.393M168.635 238.915C161.287 232.908 159.11 225.338 148.813 214.106C142.388 207.098 131.947 200.962 123.842 190.585C122.524 183.121 127.959 166.068 122.244 157.358C114.082 144.917 105.457 133.762 106.948 122.446C108.827 122.729 111.431 122.582 113.295 121.265M168.635 238.915C168.403 239.699 168.211 240.525 168.062 241.393M168.062 241.393C159.353 234.56 154.591 223.23 147.339 216.036C140.54 209.292 130.536 201.827 122.55 193.251L121.535 195.457C119.445 180.728 124.782 173.15 120.95 161.589C116.137 147.069 105.447 140.02 103.18 121.425C102.307 117.906 104.35 113.103 103.66 109.186C102.907 104.904 97.2138 101.247 89.1672 88.5402C88.4199 87.3601 87.4574 86.5572 86.4267 86.092M80.6045 94.9638C84.3362 99.5121 91.7951 111.112 91.7779 121.125C91.7564 133.641 87.9748 157.254 91.7632 164.916M80.6045 94.9638C78.8197 91.8159 78.9819 89.2932 80.0924 87.6626M80.6045 94.9638C71.5512 83.6552 52.721 54.0237 49.8267 25.9666M91.7632 164.916C88.4853 161.908 84.9534 158.443 81.3323 153.036C79.2585 149.94 78.5449 146.095 77.6607 141.827M77.6607 141.827C76.8216 137.777 75.8288 133.347 73.374 128.815C70.9466 124.335 65.7463 120.075 59.144 115.532C57.8982 114.675 56.6776 113.919 55.5132 113.305M77.6607 141.827C84.7748 142.539 94.9467 139.261 78.7217 120.452C58.4404 96.9406 39.0374 43.8892 41.7314 27.9738M82.7192 1C88.1168 6.7681 87.3916 35.8437 93.9939 62.3221C99.7413 85.3722 113.087 106.136 114.874 111.879C116.474 117.021 115.322 119.834 113.295 121.265M113.295 121.265C110.904 121.597 106.122 121.634 106.126 119.131C106.131 116.002 107.423 111.578 105.5 108.73C89.4493 84.9517 75.8405 44.1473 74.8656 22.8862C73.7133 51.321 83.4421 72.2362 86.4267 86.092M86.4267 86.092C84.0966 85.0405 81.4185 85.7155 80.0924 87.6626M80.0924 87.6626C76.5656 80.1977 70.1081 66.7155 65.9779 51.6751M62.3404 21.3002C61.9516 26.2475 62.1779 31.3406 62.8368 36.4245M46.8017 113.51C48.2382 110.759 51.5501 111.213 55.5132 113.305M46.8017 113.51C39.8532 106.383 26.5837 87.5087 19.0268 65.2709M14.6171 21.0129C13.7129 25.6193 13.3382 30.3033 13.3979 34.9988M55.5132 113.305C48.2972 107.205 37.6406 85.3932 31.7036 62.1279M27.4826 25.6422C27.0536 31.6815 27.3971 38.2466 28.3111 44.9848M74.7624 6.88242L74.785 16.2599M186.792 266.462L186.889 263.701L190.746 266.654L186.792 266.462Z" stroke="#B5ED2C" stroke-width="2" stroke-linecap="round"/>
</svg>
