<svg width="152" height="152" viewBox="0 0 152 152" fill="none" xmlns="http://www.w3.org/2000/svg">
<path d="M76.1672 152H75.8328C34.019 152 0 117.981 0 76.1672L0 75.8329C0 34.0191 34.019 0 75.8328 0L76.1672 0C117.981 0 152 34.0191 152 75.8329V76.1672C152 117.981 117.981 152 76.1672 152ZM75.8328 5.14504C36.8539 5.14504 5.14504 36.854 5.14504 75.8329V76.1672C5.14504 115.146 36.8539 146.855 75.8328 146.855H76.1672C115.146 146.855 146.855 115.146 146.855 76.1672V75.8329C146.855 36.854 115.146 5.14504 76.1672 5.14504H75.8328Z" fill="#B5ED2C"/>
<path d="M86.2235 58.9557V74.9516H106.011L102.878 96.4991H86.2235V146.144C82.8844 146.607 79.4681 146.849 76.0003 146.849C71.9975 146.849 68.0666 146.53 64.2387 145.912V96.4991H45.9893L45.9893 74.9516H64.2387V55.3799C64.2387 43.2376 74.0812 33.39 86.2286 33.39V33.4003C86.2647 33.4003 86.2955 33.39 86.3315 33.39H106.016V52.0254H93.1539C89.3311 52.0254 86.2286 55.1278 86.2286 58.9506L86.2235 58.9557Z" fill="#B5ED2C"/>
</svg>
