<svg width="152" height="152" viewBox="0 0 152 152" fill="none" xmlns="http://www.w3.org/2000/svg">
<path d="M76.1672 152H75.8328C34.019 152 0 117.981 0 76.1672L0 75.8327C0 34.019 34.019 0 75.8328 0L76.1672 0C117.981 0 152 34.019 152 75.8327V76.1672C152 117.981 117.981 152 76.1672 152ZM75.8328 5.14504C36.854 5.14504 5.14504 36.8539 5.14504 75.8327V76.1672C5.14504 115.146 36.854 146.855 75.8328 146.855H76.1672C115.146 146.855 146.855 115.146 146.855 76.1672V75.8327C146.855 36.8539 115.146 5.14504 76.1672 5.14504H75.8328Z" fill="#B5ED2C"/>
<path d="M98.7201 32.4496H53.279C40.7251 32.4496 30.5122 42.6625 30.5122 55.2164L30.5122 96.7883C30.5122 109.342 40.7251 119.555 53.279 119.555H98.7201C111.274 119.555 121.487 109.342 121.487 96.7883V55.2164C121.487 42.6625 111.274 32.4496 98.7201 32.4496ZM38.5436 55.2164C38.5436 47.0924 45.155 40.4809 53.279 40.4809H98.7201C106.844 40.4809 113.455 47.0924 113.455 55.2164V96.7883C113.455 104.912 106.844 111.524 98.7201 111.524H53.279C45.155 111.524 38.5436 104.912 38.5436 96.7883V55.2164Z" fill="#B5ED2C"/>
<path d="M76.0033 97.1745C87.6774 97.1745 97.1803 87.6768 97.1803 75.9975C97.1803 64.3183 87.6826 54.8206 76.0033 54.8206C64.3241 54.8206 54.8263 64.3183 54.8263 75.9975C54.8263 87.6768 64.3241 97.1745 76.0033 97.1745ZM76.0033 62.8571C83.2527 62.8571 89.1489 68.7533 89.1489 76.0027C89.1489 83.252 83.2527 89.1483 76.0033 89.1483C68.7539 89.1483 62.8577 83.252 62.8577 76.0027C62.8577 68.7533 68.7539 62.8571 76.0033 62.8571Z" fill="#B5ED2C"/>
<path d="M99.1391 58.241C102.283 58.241 104.845 55.684 104.845 52.5352C104.845 49.3865 102.288 46.8293 99.1391 46.8293C95.9903 46.8293 93.4332 49.3865 93.4332 52.5352C93.4332 55.684 95.9903 58.241 99.1391 58.241Z" fill="#B5ED2C"/>
</svg>
