<svg width="152" height="152" viewBox="0 0 152 152" fill="none" xmlns="http://www.w3.org/2000/svg">
<path d="M76.1672 152H75.8328C34.0191 152 0 117.981 0 76.1672L0 75.8328C0 34.0191 34.0191 0 75.8328 0L76.1672 0C117.981 0 152 34.0191 152 75.8328V76.1672C152 117.981 117.981 152 76.1672 152ZM75.8328 5.14504C36.854 5.14504 5.14504 36.854 5.14504 75.8328V76.1672C5.14504 115.146 36.854 146.855 75.8328 146.855H76.1672C115.146 146.855 146.855 115.146 146.855 76.1672V75.8328C146.855 36.854 115.146 5.14504 76.1672 5.14504H75.8328Z" fill="#B5ED2C"/>
<path d="M37.5947 51.3834C35.6602 49.5878 34.6981 47.3651 34.6981 44.7206C34.6981 42.076 35.6653 39.7555 37.5947 37.9548C39.5293 36.1592 42.0195 35.2588 45.0705 35.2588C48.1215 35.2588 50.514 36.1592 52.4434 37.9548C54.3779 39.7504 55.34 42.0092 55.34 44.7206C55.34 47.432 54.3727 49.5878 52.4434 51.3834C50.5088 53.179 48.0546 54.0794 45.0705 54.0794C42.0864 54.0794 39.5293 53.179 37.5947 51.3834ZM53.7142 61.6838V116.736H36.3188L36.3188 61.6838H53.7142Z" fill="#B5ED2C"/>
<path d="M111.623 67.1219C115.415 71.238 117.308 76.8873 117.308 84.0801V115.763H100.788V86.3129C100.788 82.6857 99.8461 79.8662 97.9682 77.8597C96.0902 75.8531 93.5589 74.8446 90.3895 74.8446C87.2202 74.8446 84.6887 75.848 82.8108 77.8597C80.9328 79.8662 79.9913 82.6857 79.9913 86.3129V115.763H63.3729L63.3729 61.5293H79.9913V68.7221C81.6737 66.3245 83.9428 64.4311 86.7932 63.0368C89.6435 61.6425 92.8488 60.9479 96.4144 60.9479C102.763 60.9479 107.836 63.0059 111.623 67.1219Z" fill="#B5ED2C"/>
</svg>
