<svg width="465" height="996" viewBox="0 0 465 996" fill="none" xmlns="http://www.w3.org/2000/svg">
<path d="M233.258 401.24C230.021 397.647 226.971 394.14 224.043 390.639C210.973 374.982 200.879 359.168 186.379 337.269C169.601 314.233 167.316 305.137 142.175 293.255C139.15 292.261 136.085 291.194 132.591 289.869C97.4537 277.674 69.5964 250.638 62.6725 235.568C56.0388 220.848 52.8277 218.695 55.3288 195.472C56.585 189.667 58.9707 184.714 62.0741 180.782C72.3687 170.224 84.1982 165.834 92.8228 153.083C99.6871 145.234 102.834 122.894 93.7434 103.466C85.7531 84.0348 72.7847 66.8607 65.8264 57.8044C51.99 39.8968 34.2791 20.8338 23.3158 9.66738C19.9724 6.24961 17.2199 3.48525 15.0803 1.34548C14.173 0.438508 13.7545 0.00900936 13.7633 0.000165717C13.7633 0.000159996 13.7633 0.000154275 13.7633 0.000148554C13.7738 -0.0108584 14.4468 0.630332 15.6157 1.78697C21.244 7.36079 29.4548 15.6019 38.6046 25.4231C55.6484 44.4002 58.1873 46.1005 78.1212 74.3121C87.581 88.6193 94.2452 101.01 98.0467 115.09C101.784 128.78 101.711 147.106 86.3891 161.434C77.3501 170.231 68.2235 174.422 62.4925 181.113C51.6339 196.68 49.1607 219.532 73.7268 250.306C102.123 279.954 118.396 283.495 142.407 292.551C152.381 295.736 162.27 303.698 172.419 316.29C190.339 338.763 205.624 367.56 224.621 390.157C243.4 412.677 263.181 430.444 275.974 441.823C293.423 457.492 316.324 475.298 339.064 497.152C349.589 507.47 359.332 519.381 367.602 532.506C395.113 573.796 404.253 634.935 414.2 687.47C417.592 703.956 421.954 722.592 429.561 740.321C446.613 779.275 460.297 820.454 463.021 844.714C466.594 879.625 463.963 888.673 455.841 921.33C450.691 940.158 442.973 965.677 437.926 987.787C435.377 998.963 435.884 996.264 438.399 985.222C442.21 968.796 445.954 955.611 448.23 947.269C452.693 930.68 455.185 923.693 460.096 902.49C464.591 881.202 464.343 870.724 463.831 858.15C461.857 845.812 467.044 844.673 446.214 783.538C440.255 767.199 434.373 753.137 428.952 740.584C415.112 706.505 412.743 682.452 409.08 665.044C404.577 641.123 396.633 590.081 378.712 554.226C371.184 538.21 357.335 515.942 338.495 497.731C315.001 475.194 288.98 454.742 275.566 442.559C251.271 420.71 251.275 420.547 233.258 401.24ZM323.12 494.911C323.927 495.694 324.717 496.465 325.491 497.226C343.215 515.14 356.357 532.295 366.19 562.183C375.012 593.73 374.184 598.985 377.936 636.15C380.311 673.545 390.691 709.969 399.393 724.282C402.074 729.333 404.059 732.603 406.049 735.77C409.928 741.968 413.143 747.009 421.014 760.435C432.815 781.024 439.253 793.812 446.519 813.214C450.052 822.812 456.615 843.29 456.872 864.728C457.435 886.183 452.066 907.445 449.309 918.615C443.544 941.006 435.983 966.264 432.407 981.67C431.214 986.595 430.388 990.185 429.71 993.174C429.427 994.422 429.288 995.004 429.276 995.001C429.276 995.001 429.276 995.001 429.276 995.001C429.261 994.998 429.443 994.088 429.797 992.487C431.477 984.865 434.212 973.314 437.763 959.925C444.241 934.821 446.327 932.438 453.564 898.219C459.455 863.906 457.413 841.471 442.196 803.44C429.293 773.997 422.367 763.242 405.47 736.14C400.656 728.587 395.647 719.403 391.163 707.475C373.682 651.813 380.616 644.209 371.306 587.227C366.312 554.963 349.018 520.254 324.974 497.753C306.807 480.104 289.445 465.665 278.087 455.491C259.054 438.602 235.189 417.292 212.964 390.704C204.687 380.836 197.458 369.728 190.34 358.389C175.306 331.25 148.608 305.351 114.629 293.319C94.71 285.452 76.2508 274.031 62.2334 259.015C29.304 227.925 22.4095 160.16 46.1243 126.82C52.5133 118.404 63.581 120.725 69.2297 124.172C70.7182 124.992 72.0877 125.89 73.366 126.822C76.7558 129.532 80.7199 126.488 82.0024 123.596C83.53 120.617 84.0071 117.488 84.1947 114.602C84.4962 108.799 83.5661 103.629 82.2527 98.6185C79.4646 88.6053 75.1528 78.822 66.1437 65.1906C55.3175 48.6612 36.6528 28.6529 19.4173 13.4767C10.6424 5.79534 12.8256 7.52951 21.4775 15.1514C34.1734 26.4544 43.8115 36.7372 49.5639 43.254C60.9515 56.6717 66.1142 62.2893 76.2924 81.9638C85.1863 101.891 87.7351 114.017 81.2279 125.684C79.2089 128.442 75.5887 129.208 73.0913 127.2C70.8867 125.631 68.2721 123.786 63.8778 122.341C59.7737 121.013 52.1242 120.079 46.4887 127.112C40.7406 134.534 35.8837 146.765 33.4868 163.605C26.662 230.573 62.2754 259.942 80.261 273.778C88.106 279.528 100.175 286.741 114.929 292.563C137.681 301.169 162.788 317.208 177.126 337.434C187.36 350.464 198.017 371.601 213.587 390.185C236.081 417.276 263.812 441.755 278.493 454.752C303.372 476.66 303.644 476.491 323.12 494.911ZM5.04792 158.526C5.14036 167.255 6.00701 174.135 8.00462 184.563C10.2737 194.936 10.4728 196.559 14.7132 207.991C19.0851 219.358 25.2462 230.007 28.27 234.463C31.3498 238.977 31.4253 239.559 36.1719 245.661C41.0035 251.673 44.1412 255.141 48.8431 259.967C53.378 265.056 69.4977 278.208 75.965 282.001C82.2818 286.118 89.7215 290.468 94.2854 292.848C95.7174 293.603 96.8608 294.192 97.7406 294.645C98.1133 294.837 98.2823 294.934 98.2768 294.945C98.2768 294.945 98.2768 294.945 98.2768 294.945C98.27 294.959 97.9929 294.84 97.5099 294.601C95.1626 293.443 91.7196 291.703 87.7997 289.556C80.3446 285.342 79.5863 284.889 70.1949 278.428C60.8899 271.697 55.471 267.457 46.0816 257.803C37.1074 247.869 34.4167 245.79 24.5156 229.619C15.4936 212.877 14.393 211.047 8.93512 192.908C3.60496 174.573 3.6358 150.26 5.59522 138.997C7.18069 127.745 10.8237 112.366 19.9357 98.7727C22.1377 95.5154 24.8658 92.1181 28.0169 89.165C37.4697 82.3661 49.8519 88.6659 58.9817 93.5966C61.5384 95.088 64.2633 96.2814 67.0836 96.447C69.1952 96.6158 71.6052 95.6899 72.3428 93.46C73.1294 91.2535 72.7406 88.7532 72.0991 86.3574C70.7282 81.523 68.1707 76.9468 65.5331 72.7397C60.1561 64.3004 54.1885 57.3143 50.3837 52.91C44.3758 46.0743 41.833 43.4746 37.204 38.7806C35.9105 37.4986 34.3556 36.1011 32.5075 34.4414C27.7095 30.1388 21.0253 24.2837 15.5129 19.1858C12.7701 16.5942 13.4191 17.1493 16.2456 19.6891C20.3999 23.3821 23.8139 26.4134 25.9983 28.2648C30.352 31.9788 32.2815 33.4778 37.4664 38.5204C37.4671 38.5211 37.4678 38.5218 37.4685 38.5225C42.5572 43.7871 44.9086 46.0707 47.7915 49.2548C50.3939 52.4867 51.038 51.9039 63.8228 69.1432C69.7425 77.8989 74.2095 85.6577 73.327 92.6768C73.0225 94.3807 71.949 95.9264 70.5026 96.5967C69.0784 97.2896 67.5578 97.3128 66.2551 97.1691C63.6042 96.8351 61.4831 95.8704 59.6602 94.923C59.3147 94.7399 58.9484 94.5363 58.5623 94.3097C52.5565 91.1252 38.4816 82.7188 28.5357 89.7183C27.4658 90.7225 26.4427 91.7811 25.4764 92.8693C15.7671 102.197 7.14691 128.319 6.41762 139.051C5.17659 149.757 5.19425 149.819 5.04792 158.526ZM216.272 404.582C220.779 409.165 224.6 412.493 230.226 417.939C235.867 423.374 236.613 424.295 243.198 430.382C249.79 436.461 256.364 442.569 259.38 445.205C262.375 447.821 262.589 448.278 266.815 452.001C271.103 455.774 273.638 458.054 277.319 461.387C280.998 464.733 292.386 474.749 296.686 478.364C300.952 481.965 305.56 486.116 308.458 488.718C309.321 489.496 310.005 490.123 310.537 490.656C310.764 490.886 310.78 490.932 310.776 490.945C310.776 490.945 310.776 490.945 310.776 490.945C310.756 490.948 310.706 490.901 310.355 490.568C308.958 489.273 306.762 487.406 304.265 485.306C299.439 481.254 299.108 480.826 292.69 475.321C286.281 469.815 282.433 466.6 275.089 460.022C267.757 453.428 265.818 452.118 255.618 442.663C245.428 433.149 244.134 432.379 233.986 422.882C223.837 413.385 211.504 400.89 205.72 394.821C200.784 389.686 194.431 382.954 188.12 375.383C188.003 375.243 187.898 375.093 187.807 374.938C186.999 373.568 186.174 372.206 185.335 370.852C179.138 360.755 170.157 349.111 161.104 339.693C152.221 330.058 137.715 318.472 130.597 313.733C123.539 308.922 121.744 307.817 114.615 303.721C110.491 301.38 104.768 298.304 99.8558 295.776C97.3988 294.513 97.9766 294.734 100.489 295.959C104.155 297.753 107.103 299.343 108.99 300.284C112.744 302.17 114.344 302.987 118.874 305.757C123.386 308.551 125.582 309.771 128.156 311.485C130.671 313.307 130.839 312.981 143.322 322.569C155.621 332.409 161.455 338.887 165.508 343.232C169.58 347.584 177.416 357.333 182.759 365.438C184.375 367.839 186.403 370.995 188.498 374.529C188.569 374.649 188.648 374.762 188.737 374.868C194.801 382.151 202.452 390.294 206.283 394.22C211.851 399.909 211.798 399.999 216.272 404.582ZM216.272 404.582C220.779 409.165 224.6 412.492 230.226 417.939C235.867 423.374 236.613 424.295 243.198 430.382C249.79 436.461 256.364 442.569 259.38 445.205C262.375 447.821 262.589 448.278 266.815 452.001C271.103 455.774 273.638 458.054 277.319 461.387C280.998 464.733 292.386 474.749 296.686 478.364C300.952 481.965 305.56 486.116 308.458 488.718C309.321 489.496 310.005 490.123 310.537 490.656C310.764 490.886 310.78 490.932 310.776 490.945C310.776 490.945 310.776 490.945 310.776 490.945C310.756 490.948 310.706 490.901 310.355 490.568C308.958 489.273 306.762 487.406 304.265 485.306C299.439 481.254 299.108 480.826 292.69 475.321C286.281 469.815 282.433 466.6 275.089 460.022C267.757 453.428 265.818 452.118 255.618 442.663C245.428 433.149 244.134 432.379 233.986 422.882C223.837 413.385 211.504 400.89 205.72 394.821C200.784 389.686 194.431 382.954 188.12 375.383C188.003 375.243 187.898 375.093 187.807 374.938C186.999 373.568 186.174 372.206 185.335 370.852C179.138 360.755 170.157 349.111 161.104 339.693C152.221 330.058 137.715 318.472 130.597 313.733C123.539 308.922 121.744 307.817 114.615 303.721C110.491 301.38 104.768 298.304 99.8558 295.776C97.3988 294.513 97.9766 294.734 100.489 295.959C104.155 297.753 107.103 299.343 108.99 300.284C112.744 302.17 114.344 302.987 118.874 305.757C123.386 308.551 125.582 309.771 128.156 311.485C130.671 313.307 130.839 312.981 143.322 322.569C155.621 332.409 161.455 338.887 165.508 343.232C169.58 347.584 177.416 357.333 182.759 365.438C184.375 367.839 186.403 370.995 188.498 374.529C188.569 374.649 188.648 374.762 188.737 374.868C194.801 382.151 202.452 390.294 206.283 394.22C211.851 399.909 211.798 399.999 216.272 404.582ZM415.176 768.692C420.83 779.194 425.414 787.332 431.182 800.744C436.658 814.199 437.479 816.34 442.072 832.316C446.56 848.424 447.838 865.15 447.982 872.566C448.122 879.984 448.039 880.777 447.309 891.285C446.385 901.787 445.249 908.089 443.263 917.072C441.601 926.165 432.969 953.116 429.069 962.649C425.473 972.243 420.681 983.088 417.823 989.438C416.926 991.439 416.198 993.03 415.631 994.252C415.392 994.77 415.271 995.006 415.26 995.001C415.26 995.001 415.26 995.001 415.26 995.001C415.246 994.994 415.401 994.614 415.7 993.945C417.168 990.658 419.204 986.033 421.623 980.216C425.949 969.601 426.673 968.446 432.01 953.852C437.12 939.149 439.989 930.204 443.79 912.334C446.879 894.315 447.953 890.054 446.925 864.276C444.248 838.64 442.934 835.875 434.526 811.681C425.554 787.464 409.366 759.264 401.131 746.029C395.376 736.674 387.877 725.094 379.44 712.672C376.012 707.626 373.09 702.051 370.713 696.132C362.228 675.531 360.234 648 358.173 623.846C356.59 599.587 351.01 565.553 345.317 550.638C340.033 535.725 338.389 532.09 330.934 518.807C326.521 511.175 319.59 501.26 312.956 493.503C309.562 489.559 310.416 490.404 313.828 494.341C318.716 500.05 322.336 505.12 324.63 508.346C329.06 514.705 330.936 517.504 335.478 526.273C339.877 535.108 341.705 539.374 343.75 544.746C345.393 550.234 346.763 549.786 353.027 578.318C358.332 607.065 358.679 623.134 359.88 634.127C360.918 645.093 362.609 668.219 367.844 685.47C369.961 692.717 373.802 703.012 380.111 712.216C388.769 724.918 397.354 738.331 401.788 745.527C409.505 758.125 409.382 758.21 415.176 768.692ZM201.12 405.298C195.204 398.419 190.107 391.704 185.491 384.628L185.484 384.617C177.172 370.852 167.221 357.881 151.82 343.508C127.956 322.7 123.285 320.127 92.613 302.232C92.2121 302.004 91.8084 301.772 91.4018 301.536C58.7847 283.45 35.3681 253.523 27.2607 239.373C19.0902 225.143 17.9429 223.675 10.0002 201.742C2.91567 179.539 0.917058 165.275 0.1428 144.967C-0.817403 128.898 2.69774 82.3552 22.1847 60.3612C24.359 57.5218 28.2774 57.8323 30.7115 59.0384C33.3005 60.1792 35.3885 61.6056 37.2153 62.7523C41.5583 65.5286 46.1103 68.5058 51.3096 69.7323C53.1326 70.3015 54.6442 67.9771 53.66 66.4208C46.0092 51.9275 32.8274 42.2509 24.3402 35.7257C20.4598 32.7941 17.4128 30.484 15.1433 28.6194C14.1805 27.8303 13.7553 27.4498 13.7632 27.4415C13.7632 27.4415 13.7632 27.4415 13.7632 27.4415C13.77 27.4256 14.4644 27.9983 15.7048 28.9906C21.6937 33.9098 31.5339 40.1746 41.3771 49.7516C47.7342 56.062 51.2692 61.2254 53.9655 66.2591C55.0971 68.0295 53.3275 70.726 51.231 70.0686C47.2967 69.1424 43.5386 67.1633 39.2049 64.3956C37.0215 63.0267 34.7068 61.3925 31.9154 59.9291C29.3018 58.4943 25.0321 57.2027 22.3995 60.5502C21.6136 61.4457 20.8131 62.4315 20.0005 63.5207C1.96274 92.7878 -0.503119 115.402 1.16305 155.453C6.8033 195.067 6.56753 206.831 38.1858 254.234C60.7701 282.551 75.0211 290.759 92.9658 301.614C103.584 307.7 116.034 314.405 133.023 326.759C153.122 341.345 172.952 361.483 186.174 384.208L186.165 384.193C204.676 412.766 229.68 432.721 244.342 445.272C262.766 460.87 286.904 479.095 308.585 503.674C317.743 514.084 325.315 526.38 330.614 539.885C350.802 585.513 334.701 650.016 360.34 698.669C361.485 700.709 362.719 702.718 364.084 704.735C394.717 748.276 428.746 811.683 433.47 845.531C439.223 880.149 438.532 889.309 433.152 922.566C429.571 941.752 421.233 967.259 412.607 988.173C408.229 998.759 409.24 996.266 413.472 985.69C419.634 970.136 423.968 957.068 426.356 948.73C430.877 932.16 432.924 924.979 435.697 903.435C437.889 881.765 436.644 871.439 435.209 858.886C432.115 846.82 438.27 844.842 411.864 785.917C393.06 748.205 375.887 723.852 363.447 705.167C356.745 695.254 353.255 685.92 350.849 677.779C342.276 654.287 345.341 602.39 336.899 563.437C333.436 546.857 324.89 523.036 307.975 504.209C285.819 478.984 258.111 458.138 243.954 446.019C219.109 424.829 218.887 424.834 201.12 405.298ZM333.803 623.914C334.847 643.854 335.281 659.954 342.748 683.149C346.847 694.783 350.449 700.892 354.596 707.227C358.732 713.401 363.115 719.883 370.657 731.459C386.047 754.859 399.485 779.432 404.866 790.712C410.222 801.941 410.843 803.163 417.151 819.685C423.106 836.329 425.728 846.859 428 862.159C431.932 877.446 427.954 925.34 421.084 941.498C416.033 958.118 407.288 975.834 401.43 986.171C399.655 989.35 398.168 991.872 397.004 993.81C396.511 994.631 396.27 995.007 396.26 995.001C396.26 995.001 396.26 995.001 396.26 995.001C396.246 994.992 396.589 994.393 397.213 993.333C400.222 988.21 404.522 980.587 408.966 971.173C416.752 953.481 418.362 951.674 424.88 926.403C430.132 900.879 431.231 884.645 426.251 854.337C419.555 824.394 417.299 817.342 397.935 778.509C378.431 742.892 373.965 737.736 353.879 707.714C352.447 705.616 351.052 703.399 349.667 700.966C327.125 662.01 335.186 604.639 330.267 579.318C327.715 553.653 316.678 518.113 289.037 492.878C287.601 491.506 286.098 490.123 284.524 488.732C256.039 467.084 222.861 439.406 196.381 411.181C185.273 399.368 172.9 385.011 162.538 369.605C146.042 346.693 123.149 330.567 110.611 320.66C89.2232 304.703 83.7781 301.128 62.4679 286.746C50.2158 278.482 33.1176 267.465 19.176 257.364C12.2848 252.142 13.8228 253.342 20.899 258.459C31.288 265.775 40.0628 271.518 45.5421 275.115C56.4843 282.249 61.2423 285.301 74.8478 294.654C88.4708 304.069 94.9086 308.462 102.702 314.162C110.117 320.332 111.508 318.355 147.815 351.473C153.814 357.427 159.013 363.297 163.058 369.254C182.861 397.616 198.446 412.168 209.159 423.103C222.22 436.299 251.152 462.18 275.209 480.556C278.156 482.856 281.494 485.34 285.038 488.148C312.058 508.075 330.536 557.243 331.066 579.082C333.661 603.79 332.896 603.897 333.803 623.914ZM317.291 633.889C319.89 653.282 324.542 668.457 337.196 688.675C337.254 688.766 337.313 688.858 337.372 688.95C350.322 709.226 352.294 712.251 366.902 735.57C381.577 758.886 394.441 783.335 399.5 794.514C404.561 805.68 405.145 806.872 410.996 823.276C416.482 839.793 418.785 850.216 420.598 865.335C424.053 880.524 418.688 927.448 411.412 943.184C405.954 959.311 396.769 976.5 390.659 986.467C388.802 989.542 387.25 991.979 386.036 993.852C385.521 994.645 385.27 995.007 385.26 995.001C385.26 995.001 385.26 995.001 385.26 995.001C385.247 994.992 385.606 994.412 386.257 993.388C389.398 988.443 393.909 981.033 398.537 972.006C406.76 954.865 408.415 953.12 415.615 928.425C421.548 903.531 423.154 887.529 419.085 857.594C413.279 827.966 411.227 820.937 392.894 782.387C372.985 744.568 369.569 741.254 346.724 705.314C343.37 700.112 339.901 694.736 336.358 689.213C313.273 656.58 315.294 611.363 314.066 589.996C313.528 564.467 305.57 529.371 282.4 500.74C282.258 500.554 282.114 500.368 281.97 500.181C255.39 475.981 216.686 451.943 191.168 420.735C181.251 409.225 170.834 394.921 162.52 379.584C147.706 354.92 123.357 338.747 110.609 328.87C89.2753 313.543 83.7842 310.19 62.4498 296.627C50.1737 288.82 32.9836 278.525 19.1267 268.78C12.3132 263.692 13.8072 264.879 20.8432 269.837C31.1846 276.869 40 282.259 45.4844 285.654C56.4288 292.36 61.1968 295.215 74.8435 304.063C88.5006 312.976 94.9244 317.151 102.708 322.606C110.013 328.616 111.81 326.277 147.3 359.035C153.854 365.739 159.31 372.437 163.078 379.279C179.022 407.653 193.311 422.21 203.371 432.865C215.722 446.369 245.364 470.486 269.462 488.01C273.406 491.14 278.367 494.626 282.591 499.701C304.322 524.05 315.496 569.542 314.88 589.818C316.056 614.208 315.241 614.3 317.291 633.889ZM312.882 638.426C315.312 657.444 316.435 673.638 328.689 693.664C328.751 693.755 328.813 693.847 328.875 693.939C342.095 713.682 344.076 716.652 358.345 739.791C372.612 762.988 384.466 787.539 389.106 798.747C393.724 809.913 394.263 811.143 399.484 827.525C404.352 844.025 406.3 854.361 407.669 869.338C410.669 884.383 404.157 930.683 396.068 945.817C389.896 961.515 379.646 977.78 372.793 987.081C370.714 989.951 368.98 992.211 367.623 993.942C367.048 994.675 366.77 995.008 366.76 995C366.76 995 366.76 995 366.76 995C366.748 994.991 367.151 994.453 367.88 993.505C371.397 988.923 376.444 982.036 381.671 973.422C390.927 957.062 392.689 955.53 400.865 931.431C407.687 907.041 409.544 891.337 406.388 861.65C401.51 832.221 399.835 825.232 382.966 786.571C364.353 748.719 361.159 745.251 338.404 709.925C335.029 704.828 331.502 699.578 327.865 694.224C307.77 660.597 311.806 616.204 308.603 595.139C305.685 571.046 305.062 533.053 277.529 508.744C277.303 508.557 277.076 508.37 276.849 508.183C249.053 485.52 211.244 461.174 185.187 430.812C174.979 419.296 164.314 404.856 155.526 389.59C141.592 365.363 121.105 346.674 108.962 336.565C88.7867 320.286 83.3678 316.922 62.2986 303.529C50.1641 295.854 32.9107 286.237 19.0971 276.734C12.3439 271.729 13.8295 272.927 20.789 277.751C31.0839 284.566 39.9153 289.632 45.3899 292.896C56.3677 299.37 61.0995 302.063 74.5307 310.88C87.9141 319.807 94.1004 324.213 101.525 329.951C108.288 336.367 110.822 333.613 142.386 369.437C147.843 376.254 152.356 382.9 156.072 389.272C172.838 417.601 187.131 432.114 197.402 442.604C209.793 455.773 239.526 478.959 263.19 496.435C267.495 499.714 272.591 503.647 278.031 508.137C304.43 528.784 307.477 576.186 309.41 594.933C311.472 618.968 311.032 619.047 312.882 638.426ZM389.887 819.384C398.662 844.611 405.424 865.936 401.466 898.771C394.461 930.638 391.776 936.584 366.575 964.122C354.83 975.563 341.26 984.878 328.44 992.224C310.433 1000.39 293.593 992.841 284.77 990.963C268.797 985.982 267.178 985.147 245.232 976.062C223.374 966.793 210.349 960.5 191.06 952.963C185.167 950.807 175.524 946.8 163.76 945.085C135.532 942.677 105.555 967.244 90.8502 972.95C70.3189 983.883 43.7869 990.04 27.8276 988.079C22.8845 987.707 19.0306 987.03 16.1035 986.423C14.8551 986.16 14.2755 986.01 14.2782 986C14.2782 986 14.2782 986 14.2782 986C14.2816 985.983 15.1872 986.181 16.7891 986.495C24.5043 988.034 36.4682 989.2 50.2299 986.781C75.5265 981.069 78.2509 979.323 109.242 962.947C128.596 952.813 143.768 942.968 163.812 944.67C175.225 946.238 187.114 950.745 201.205 956.509C239.571 971.644 246.65 980.727 303.238 994.491C312.947 995.888 321.769 995.39 328.144 991.71C358.059 972.23 372.486 966.298 393.847 923.209C418.234 866.679 379.769 794.486 363.383 765.527C351.743 744.894 335.834 720.412 317.94 694.172C309.255 681.505 302.933 666.65 299.75 650.799C291.436 605.983 301.612 543.155 261.984 504.201C259.3 502.202 255.88 500.619 252.798 498.838C219.22 481.135 181.1 448.056 162.587 414.053C154.074 399.31 144.264 387.834 136.894 379.698C112.167 353.802 105.017 348.511 77.8345 327.337C62.0899 315.282 39.5076 299.953 20.7312 286.516C11.3863 279.484 13.5921 281.214 22.9978 287.998C36.9369 297.803 48.5698 305.767 55.7401 310.823C70.1248 320.978 76.2734 325.246 93.6053 339.163C110.792 353.246 118.541 360.329 127.756 369.435C135.047 378.007 138.857 376.721 163.019 413.804C166.189 419.297 170.057 425.377 174.957 432.003C208.973 476.307 241.829 491.184 262.589 503.67C265.67 507.175 268.215 510.36 270.577 513.563C289.039 532.411 297.556 585.68 297.315 626.06C298.364 644.125 302.883 671.502 318.612 693.716C337.237 720.882 355.065 748.947 364.006 764.96C380.005 794.147 379.928 794.394 389.887 819.384ZM177.661 974.45C180.31 974.747 182.436 974.713 185.634 975.36C188.818 976.053 189.26 976.304 192.847 977.285C196.435 978.295 199.866 979.756 201.418 980.339C202.962 980.923 203.063 981.166 205.203 982.111C207.35 983.079 208.596 983.749 210.384 984.785C212.175 985.775 217.542 989.086 219.471 990.337C221.415 991.538 223.473 993.176 224.712 994.136C225.101 994.435 225.403 994.678 225.632 994.868C225.729 994.949 225.768 994.994 225.76 995.004C225.76 995.004 225.76 995.004 225.76 995.004C225.751 995.016 225.67 994.974 225.539 994.878C224.906 994.414 223.952 993.737 222.808 992.986C220.642 991.583 220.504 991.327 217.564 989.47C214.616 987.654 212.783 986.663 209.232 984.681C205.649 982.764 204.703 982.544 199.455 980.238C194.134 978.08 193.449 978.173 187.909 976.849C182.354 975.545 175.158 974.82 171.713 974.893C168.274 974.895 163.651 975.213 158.835 976.01C154.011 976.775 148.197 978.451 143.123 980.278C138.018 982.03 131.082 985.324 127.998 986.992C124.882 988.649 124.103 989.097 121.253 990.89C119.59 991.945 117.347 993.378 115.405 994.614C114.426 995.239 114.612 995.043 115.561 994.363C116.948 993.372 118.106 992.646 118.791 992.122C120.198 991.056 120.801 990.61 122.696 989.554C124.644 988.475 125.443 987.817 126.556 987.214C127.718 986.623 127.664 986.622 133.479 983.655C139.318 980.773 142.715 979.581 145.031 978.744C147.368 977.895 152.313 976.509 156.277 975.702C160.202 974.755 168.388 974.011 171.695 974.071C175.001 974.054 175.011 974.194 177.661 974.45ZM374.488 811.551C381.836 836.441 387.342 857.114 383.8 888.914C377.277 919.613 375.618 926.575 349.119 951.258C339.709 958.801 329.022 964.52 318.402 968.752C295.581 976.074 276.222 964.005 266.515 960.496C251.768 953.681 250.434 952.581 230.087 941.822C209.718 931.158 197.42 924.444 178.22 918.321C173.21 916.852 165.263 914.648 155.778 914.592C127.196 913.502 99.0949 943.982 85.9325 953.06C68.7281 967.627 43.5727 977.335 27.9298 975.382C23.1397 975.137 19.3978 974.493 16.5597 973.911C15.3442 973.658 14.7753 973.51 14.7783 973.5C14.7783 973.5 14.7783 973.5 14.7783 973.5C14.7812 973.482 15.6702 973.678 17.2265 973.978C24.6751 975.43 36.4254 976.52 49.4602 972.757C73.0884 964.26 75.0816 961.29 101.545 940.117C119.396 925.774 134.169 914.524 155.778 914.164C165.643 914.168 176.336 916.721 188.225 921.244C225.512 936.107 231.362 945.41 283.676 966.585C297.466 971.167 309.3 971.838 318.178 968.193C342.416 956.734 359.147 950.549 376.712 912.687C398.266 858.029 366.439 787.088 351.128 758.323C339.496 736.159 322.628 709.481 300.963 683.202C293.123 673.763 288.965 661.466 286.852 649.079C277.961 606.14 298.123 533.555 244.116 508.794C242.487 508.041 240.879 507.272 239.283 506.482C197.727 488.285 160.505 438.752 142.113 405.038C138.255 398.315 134.363 392.581 130.943 387.916C109.546 360.649 102.627 355.204 76.5405 334.451C61.3562 322.674 38.9115 308.592 20.5708 295.85C11.516 289.107 13.5771 290.759 22.794 297.262C36.4709 306.547 47.9663 313.881 54.9895 318.659C69.0698 328.255 75.1636 332.278 91.6801 346.084C107.973 360.175 114.941 367.62 123.107 377.156C128.51 384.039 130.851 385.556 142.512 404.808C147.404 413.218 154.114 424.783 165.369 440.397C194.662 481.132 223.59 498.486 244.449 508.071C250.406 510.816 255.148 513.919 259.212 517.356C282.772 532.003 284.91 586.558 285.216 625.038C286.269 640.413 286.862 664.369 301.589 682.687C323.782 709.287 342.91 740.607 351.772 757.781C366.277 786.621 366.014 786.934 374.488 811.551ZM349.981 801.332C356.672 825.129 361.663 844.809 359.567 875.19C358.02 890.373 355.135 898.831 351.245 907.259C347.064 915.372 342.062 924.894 327.062 933.993C319.104 938.6 310.143 941.176 301.32 942.278C275.999 943.862 256.986 929.162 246.905 924.716C233.261 917.462 232.123 916.125 212.438 906.422C192.61 897.145 179.888 892.609 160.982 889.488C156.694 888.843 150.327 888.107 142.778 888.097C129.875 887.788 113.57 892.116 101.842 901.755C90.0139 911.112 81.9492 922.687 76.7325 929.081C64.7394 946.78 42.8484 962.162 27.3484 959.662C22.7884 959.515 19.2099 958.89 16.4972 958.339C15.3286 958.096 14.7748 957.951 14.7783 957.941C14.7783 957.941 14.7783 957.941 14.7783 957.941C14.7806 957.923 15.6459 958.113 17.1375 958.4C24.1765 959.715 35.7135 961.05 47.5151 955.531C68.3113 943.439 67.718 938.437 88.7454 913.907C104.083 896.286 120.739 887.655 142.778 887.662C151.209 887.664 160.442 888.526 170.836 890.848C207.894 900.624 214.931 907.259 262.65 932.128C278.228 939.738 290.743 943.068 301.243 941.668C321.952 937.973 341.027 932.418 353.928 898.188C370.629 845.369 342.99 778.03 328.451 750.206C319.475 732.692 306.982 712.24 290.463 692.203C279.579 679.272 273.006 662.086 271.054 644.173C268.29 622.199 271.806 597.699 271.196 572.68C271.788 547.659 258.606 521.51 235.114 512.295C233.123 511.363 231.157 510.421 229.206 509.46C188.586 492.561 149.134 446.637 132.116 414.036C128.887 408.408 125.748 403.553 122.934 399.468C103.383 372.821 97.1485 367.182 72.9048 346.611C58.79 334.925 37.6478 321.023 20.2859 308.688C11.689 302.203 13.6485 303.755 22.3892 310.048C35.3465 319.068 46.1446 326.27 52.7627 330.99C65.9942 340.466 71.6817 344.439 86.9843 358.186C102.002 372.178 108.362 379.585 115.818 388.948C120.619 395.421 122.589 397.177 132.513 413.808C137.275 421.953 143.932 433.518 156.075 449.344C186.078 488.108 215.711 502.036 235.452 511.571C240.628 513.985 244.859 516.541 248.553 519.301C258.124 525.76 269.413 541.528 271.145 561.395C273.458 580.985 270.771 602.45 270.741 621.186C270.403 639.64 272.545 670.239 291.09 691.686C308.691 712.883 322.156 736.031 329.103 749.678C342.611 777.376 342.237 777.68 349.981 801.332ZM323.298 776.225C330.251 798.281 336.029 816.422 335.061 844.995C334.044 859.227 331.308 867.209 327.325 874.976C323.105 882.397 317.473 891.051 302.158 897.237C298.507 898.632 294.759 899.614 290.835 900.279C261.532 903.385 238.377 884.851 226.791 880.71C213.667 874.632 212.537 873.313 193.224 866.373C173.712 860.023 161.212 858.006 143.285 857.638C143.119 857.637 142.95 857.636 142.778 857.635C133.602 857.298 114.8 860.178 99.9499 871.438C84.9583 882.241 73.8471 897.516 67.6901 905.242C55.7337 921.112 40.3525 939.499 26.4714 943.149C22.3678 944.481 18.9742 944.838 16.4045 944.938C15.3006 944.975 14.7772 944.951 14.7778 944.941C14.7778 944.941 14.7778 944.941 14.7778 944.941C14.777 944.922 15.5873 944.925 16.9939 944.845C23.7892 944.643 34.0016 941.237 42.9904 933.097C59.2744 917.557 59.3695 914.3 78.8617 890.974C96.7616 870.748 112.755 857.787 142.778 857.169C145.959 857.174 149.161 857.276 152.611 857.513C188.113 861.6 196.497 865.068 241.696 887.264C263.401 897.945 277.47 901.892 290.724 899.626C304.226 896.938 320.884 891.376 330.005 866.558C345.101 816.776 315.111 754.843 302.392 728.655C291.918 707.787 277.013 682.614 258.447 656.68C252.67 648.703 249.32 638.936 248.52 628.851C246.777 609.76 253.401 589.468 255.582 568.243C256.577 557.729 255.842 546.3 249.792 537.257C243.855 528.208 234.077 522.627 224.136 518.815C218.542 516.676 213.022 514.517 207.637 512.249C167.153 500.37 134.851 452.447 119.613 422.033C116.622 416.486 113.856 411.704 111.4 407.642C94.7921 381.563 90.1013 375.235 68.7228 354.525C56.28 342.627 36.3338 329.795 19.9466 318.42C11.9051 312.371 13.7024 313.81 21.926 319.676C34.1526 328.008 44.334 334.616 50.4496 339.165C62.6501 348.282 67.8655 352.31 81.0786 366.267C93.9749 380.559 99.1607 388.045 105.468 397.353C109.552 403.74 111.04 405.561 120.016 421.814C124.248 429.517 130.072 440.515 140.226 455.815C170.394 502.854 205.657 509.611 224.428 518.05C225.278 518.373 226.093 518.697 226.875 519.021C236.339 522.755 253.683 532.508 256.098 551.836C258.717 570.407 252.108 590.039 250.089 607.4C248.364 620.244 247.335 640.263 259.105 656.209C277.885 682.158 295.088 712.015 303.053 728.142C315.627 754.005 315.437 754.272 323.298 776.225ZM277.075 731.96C284.108 751.346 289.587 766.893 291.487 792.183C292.075 804.708 291.044 812.142 288.988 819.576C286.59 826.351 283.996 836.842 269.558 841.24C265.172 842.317 260.631 842.151 256.212 841.277C232.669 836.42 211.011 831.198 200.288 829.591C187.633 827.695 186.335 826.873 168.17 825.999C150.619 825.721 139.576 827.19 125.347 832.131C124.874 832.304 124.396 832.486 123.914 832.677C107.677 836.789 72.9313 872.286 61.1711 885.452C49.0727 898.468 34.7732 913.041 24.2303 919.44C20.9814 921.475 18.3099 922.719 16.1119 923.516C15.1996 923.843 14.7816 923.95 14.7772 923.941C14.7772 923.941 14.7772 923.941 14.7772 923.941C14.7736 923.922 15.4103 923.724 16.5813 923.27C22.2774 921.131 29.839 915.913 37.7006 908.687C52.1986 894.984 53.409 893.109 71.9708 873.568C89.495 856.05 99.8676 842.817 125.184 831.689C127.215 830.94 129.333 830.243 131.559 829.605C162.475 822.912 170.727 823.519 214.574 831.65C233.899 835.763 245.518 838.578 256.338 840.641C269.384 843.955 286.552 837.029 289.769 811.739C295.424 766.762 269.69 713.571 256.906 690.551C250.595 679.148 242.582 666.173 232.948 652.678C222.083 638.389 219.484 617.677 224.145 598.623C226.851 585.09 233.147 571.188 234.852 555.905C235.72 548.377 233.087 540.024 226.413 535.792C219.901 531.367 212.008 529.592 204.216 528.344C192.119 526.492 180.333 523.351 169.859 517.983C134.591 501.468 118.332 450.031 102.119 425.035C99.82 421.023 97.7106 417.477 95.8637 414.447C81.2149 391.27 77.3697 385.574 59.7371 365.932C49.4918 354.676 33.3498 341.277 19.2865 330.566C12.2829 325.07 13.9013 326.28 21.0008 331.739C31.4304 339.667 39.7385 346.494 44.8078 350.978C54.8392 359.964 59.0692 363.958 69.9961 377.027C80.6814 390.289 85.2198 396.992 90.6664 405.26C94.1253 410.705 95.3237 412.438 102.514 424.807C106.46 431.636 112.02 441.787 120.437 457.675C142.067 503.829 168.61 519.394 186.852 523.749C191.444 525.081 197.434 526.47 204.342 527.527C214.264 529.344 228.571 531.53 234.15 543.979C238.53 556.448 232.775 569.363 229.85 580.4C224.302 597.364 216.013 630.12 233.609 652.207C244.112 666.883 252.582 681.044 257.555 690.026C269.641 712.615 269.377 712.811 277.075 731.96ZM237.676 700.582C245.512 715.815 253.339 729.192 250.492 750.938C248.281 761.594 244.013 766.762 239.519 771.461C234.791 776.04 229.153 780.38 217.702 784.98C194.592 793.851 169.526 793.963 158.73 794.254C157.666 794.271 156.688 794.279 155.778 794.281C147.549 794.614 145.053 794.313 131.675 798.21C117.003 803.142 108.757 807.778 97.2942 814.952C85.3054 821.483 54.2719 849.469 45.0159 861.507C35.1084 872.943 24.8584 886.837 19.1597 895.514C17.3654 898.215 15.9988 900.339 14.9445 901.99C14.4992 902.688 14.2865 903.007 14.2758 903.001C14.2758 903.001 14.2758 903.001 14.2758 903.001C14.263 902.992 14.5635 902.479 15.1287 901.578C17.8648 897.215 22.0569 890.736 27.355 883.336C37.4484 869.709 38.473 868.085 53.9472 851.181C69.9089 834.828 80.0582 825.092 102.999 810.863C122.994 800.07 130.509 795.195 155.778 793.582C160.282 793.587 165.276 793.51 170.943 793.22C189.953 792.141 200.33 789.845 210.31 786.843C219.899 783.346 231.349 780.646 243.13 765.834C265.913 730.211 226.939 685.081 214.896 668.765C213.966 667.607 212.995 666.415 211.982 665.187C195.948 648.001 195.031 616.563 199.224 586.947C200.916 572.279 201.449 548.913 181.652 543.818C164.604 537.128 141.813 537.657 131.783 520.373C124.241 509.617 118.093 495.747 112.007 482.063C101.63 458.186 88.9362 435.711 80.9956 423.205C68.338 403.578 64.9897 398.907 50.7036 381.571C42.3712 371.677 30.1288 358.738 18.538 349.094C12.6836 344.316 14.0754 345.281 19.978 350.144C28.4933 357.311 34.8918 363.889 38.9124 367.999C46.8412 376.271 50.1588 379.894 59.1095 391.294C67.9386 402.811 71.8635 408.37 76.5557 415.407C80.8579 422.647 82.1372 421.814 102.157 459.786C106.182 467.744 109.602 475.061 112.593 481.804C124.04 507.32 132.071 523.603 143.068 530.513C150.83 535.888 166.418 537.588 181.902 543.072C194.249 546.153 201.075 559.651 200.697 570.775C201.342 583.32 197.537 601.571 197.733 619.858C197.45 638.242 204.64 655.796 212.611 664.668C213.656 665.932 214.606 667.096 215.461 668.156C228.824 685.298 228.723 685.434 237.676 700.582ZM176.781 680.841C183.015 693.449 190.188 702.844 192.029 720.273C192.128 729.191 188.105 733.606 184.405 737.155C180.411 740.759 175.787 743.78 167.085 748.523C149.605 757.716 131.964 766.456 124.412 770.868C121.935 772.266 120.127 773.28 118.438 774.223C115.047 776.124 112.316 777.566 105.144 781.83C94.4766 788.241 88.0499 792.242 79.2339 798.599C69.8103 804.276 46.4599 828.438 39.4239 838.374C31.9079 847.914 23.5587 859.001 18.5792 865.73C17.0452 867.805 15.8424 869.429 14.8856 870.717C14.4821 871.26 14.2859 871.508 14.2759 871.5C14.2759 871.5 14.2759 871.5 14.2759 871.5C14.2634 871.491 14.5396 871.087 15.0491 870.385C17.4975 867.015 21.1157 862.021 25.4379 856.133C33.6347 845.127 34.4061 843.937 46.1355 829.678C58.115 815.727 65.8009 807.461 83.5568 794.942C97.6329 785.429 103.477 782.054 118.097 773.624C122.235 771.268 126.931 768.67 132.78 765.584C159.258 750.731 165.171 752.85 187.298 732.623C194.566 723.325 189.712 709.744 185.066 699.109C180.184 688.159 174.323 677.8 169.431 669.14C165.972 663.067 163.883 657.283 162.57 652.715C156.446 634.902 160.828 609.587 157.699 583.941C156.482 577.281 152.861 570.264 146.094 566.777C127.759 557.273 106.078 544.133 100.704 522.482C97.8901 514.896 95.2466 506.371 92.4759 497.538C85.5751 474.891 75.6093 452.092 68.9322 440.335C59.5626 424.05 56.9545 420.185 45.0771 406.577C38.163 398.837 27.3503 389.364 17.8396 381.904C13.0771 378.115 14.1966 378.917 19.0283 382.69C26.0971 388.197 31.6622 393.037 35.0816 396.13C41.8833 402.388 44.7529 405.111 52.0887 414.195C59.2338 423.402 62.2319 428.022 65.7662 433.83C68.8699 439.864 70.2858 439.047 83.7331 470.932C87.7136 480.92 90.6789 489.655 93.1221 497.335C98.4815 514.247 102.166 525.477 106.321 533.423C110.293 544.625 129.131 557.195 146.458 566.112C149.15 567.575 151.483 569.514 153.27 571.77C166.691 590.753 155.179 636.083 163.334 652.395C165.998 661.269 168.171 665.071 170.138 668.737C171.995 672.061 173.659 675.046 176.781 680.841ZM105.445 659.106C103.764 669.466 102.163 677.704 102.117 690.43C102.27 695.649 103.022 699.074 104.622 701.723C106.924 705.72 109.101 709.938 108.399 718.711C106.54 733.67 96.6195 745.662 93.0227 750.895C89.0615 756.16 88.5405 756.57 82.4799 763.632C76.3543 770.616 72.4172 774.66 66.6942 780.426C61.0153 786.231 43.0595 803.576 36.6431 809.98C30.2159 816.376 22.8123 823.625 18.5044 828.101C17.1475 829.505 16.0943 830.601 15.2897 831.438C14.949 831.793 14.7854 831.95 14.7762 831.941C14.7762 831.941 14.7762 831.941 14.7762 831.941C14.7652 831.931 14.9935 831.664 15.4252 831.201C17.524 828.951 20.7076 825.584 24.5005 821.663C31.5955 814.368 32.4839 813.666 42.2693 804.029C52.056 794.385 57.972 788.624 69.3071 777.099C80.3556 765.361 83.3651 762.911 96.7618 744.537C102.941 735.371 105.375 729.461 106.861 723.593C108.043 717.85 109.264 711.139 103.865 702.205C103.527 701.679 103.208 701.076 102.938 700.458C97.3575 677.55 107.952 649.391 108.199 635.776C108.705 629.822 109.487 622.687 107.394 615.567C104.435 606.478 99.8831 596.927 94.8001 587.331C90.9837 579.687 85.5175 571.926 82.3925 562.517C80.0276 550.437 76.2662 538.137 72.2794 526.836C65.3144 506.55 52.4027 479.044 45.93 466.64C39.4794 454.173 37.876 451.224 31.074 439.539C27.1465 432.876 21.5807 423.704 16.4553 416.331C13.8116 412.618 14.4763 413.386 17.1477 417.106C21.0317 422.619 23.8885 427.28 25.7537 430.153C29.477 435.964 31.0097 438.419 35.2567 446.024C39.4715 453.65 41.5244 457.14 43.8914 461.647C46.1394 466.175 46.4132 465.976 57.4913 489.207C68.3277 512.582 72.9138 526.005 75.9984 535.245C77.9551 541.212 81.0704 551.518 83.1558 562.369C84.7601 568.07 88.2372 573.456 90.8468 578.414C95.6612 587.192 103.794 601.78 108.166 615.316C110.49 623.433 109.356 631.029 109.024 635.787C107.559 648.752 107.195 648.729 105.445 659.106ZM60.2607 646.695C58.7855 654.509 57.5171 660.715 54.4242 669.923C51.2306 679.093 50.4543 680.376 46.5008 690.737C44.402 696.235 42.3622 701.751 41.0835 706.524C39.9284 710.779 39.3336 714.445 39.0906 716.715C38.67 721.614 38.321 722.122 38.6438 729.123C39.116 736.1 39.9995 740.31 40.0627 746.476C41.4213 752.954 33.9294 770.727 29.3784 775.983C25.527 781.648 20.2942 787.504 17.1005 790.973C16.1257 792.035 15.3175 792.889 14.6857 793.547C14.4178 793.826 14.285 793.95 14.2761 793.941C14.2761 793.941 14.2761 793.941 14.276 793.941C14.2647 793.931 14.4452 793.716 14.7811 793.352C16.3998 791.595 18.7434 788.996 21.3208 785.873C26.0987 779.863 26.9649 779.397 32.4944 770.622C37.5381 761.684 40.1397 755.503 39.4754 743.324C38.7222 731.246 36.3049 728.23 39.35 711.14C39.737 709.324 40.1002 707.879 40.5088 706.37C44.2064 693.968 45.6606 691.199 50.9661 676.753C57.2897 660.747 61.5061 639.355 61.3986 628.972C61.5362 624.418 61.4252 619.16 60.8761 613.48C60.0138 606.348 57.9759 598.697 55.9473 590.669C52.2665 576.436 47.0883 559.084 42.498 543.512C37.9145 527.932 31.2375 506.014 28.1417 495.847C25.0596 485.714 24.2935 483.222 21.2364 473.495C19.4844 467.886 17.0821 460.194 15.2668 453.582C15.15 453.147 15.0701 452.832 15.0124 452.594C14.9238 452.24 14.8636 451.972 14.8334 451.818C14.773 451.507 14.7814 451.465 14.8022 451.52C14.8279 451.589 14.8714 451.771 15.0381 452.376C15.1788 452.878 15.341 453.437 15.6184 454.381C17.0182 459.067 18.2994 463.261 19.0902 465.614C20.7521 470.545 21.4635 472.658 23.3337 478.946C25.2184 485.277 26.3015 488.152 27.4194 491.821C28.5441 495.526 28.421 495.426 34.2475 514.045C40.0529 532.64 43.1269 542.858 45.2496 549.927C47.3744 557.001 51.6194 571.779 54.8048 583.392C56.724 590.656 60.3063 602.861 61.6839 613.404C62.2929 619.655 62.3198 625.305 62.2219 628.942C61.7918 638.82 61.5498 638.828 60.2607 646.695Z" fill="#013640"/>
</svg>
