<svg width="152" height="152" viewBox="0 0 152 152" fill="none" xmlns="http://www.w3.org/2000/svg">
<path d="M76.0001 152C34.092 152 0 117.908 0 76C0 34.0919 34.092 0 76.0001 0C117.908 0 152 34.0919 152 76C152 117.908 117.908 152 76.0001 152ZM76.0001 5.15919C36.9398 5.15919 5.15919 36.9398 5.15919 76C5.15919 115.06 36.9398 146.841 76.0001 146.841C115.06 146.841 146.841 115.06 146.841 76C146.841 36.9398 115.06 5.15919 76.0001 5.15919Z" fill="#B5ED2C"/>
<path d="M122.231 60.7857C121.654 55.2086 120.41 49.0434 115.834 45.8034C112.29 43.2909 107.631 43.198 103.282 43.2032C94.088 43.2083 84.8892 43.2187 75.6955 43.2238C66.8527 43.2342 58.0098 43.2393 49.167 43.2497C45.473 43.2548 41.8822 42.9659 38.4513 44.5653C35.5054 45.9376 33.1992 48.5481 31.8114 51.4527C29.887 55.4924 29.4847 60.0686 29.2525 64.5365C28.8243 72.6725 28.8707 80.8292 29.3815 88.9601C29.7581 94.8932 30.7125 101.45 35.299 105.232C39.3645 108.58 45.1015 108.746 50.3742 108.751C67.1106 108.766 83.8522 108.782 100.594 108.792C102.74 108.797 104.979 108.756 107.167 108.519C111.469 108.054 115.571 106.821 118.336 103.633C121.127 100.419 121.844 95.9456 122.268 91.7099C123.299 81.4328 123.289 71.0577 122.231 60.7857ZM66.0169 90.4046V61.5906L90.9668 75.995L66.0169 90.4046Z" fill="#B5ED2C"/>
</svg>
