<svg width="508" height="305" viewBox="0 0 508 305" fill="none" xmlns="http://www.w3.org/2000/svg">
<path d="M280 43H467C489.091 43 507 60.9086 507 83V264C507 286.091 489.091 304 467 304H41C18.9086 304 1 286.091 1 264V83C1 60.9086 18.9086 43 41 43H226.5" stroke="#B5ED2C" stroke-width="2"/>
<path d="M269.371 123.358C269.371 134.363 279.493 135.133 282.531 131.492C284.206 129.486 282.771 123.568 283.249 124.076C293.984 135.486 277.624 145.535 266.5 136.517C257.647 129.339 257.168 93.4528 254.181 93.4528C250.947 93.4528 250.353 129.339 241.5 136.517C232.346 143.938 219.647 138.447 221.417 129.912C222.331 125.506 223.43 126.446 225.006 130.66C225.126 130.981 225.278 131.264 225.469 131.492C228.507 135.133 238.629 134.363 238.629 123.358C238.629 108.495 239.545 99.3105 244.743 87.9507M269.371 123.358C269.371 106.881 268.245 97.3824 261.407 84.1622M269.371 123.358C269.371 107.403 268.38 97.9544 262.109 85.3693M260.757 82.9261C260.575 82.6529 260.827 83.1466 261.407 84.1622M260.757 82.9261C260.902 83.1968 261.073 83.449 261.233 83.7048M260.757 82.9261C260.602 82.6937 260.811 82.9871 261.233 83.7048M260.757 82.9261C260.98 83.3419 261.196 83.7538 261.407 84.1622M278.464 106.611C282.531 109.482 288.484 115.702 298.084 115.702C316.435 115.702 318.183 90.3426 302.391 92.0173C300.956 92.0173 305.472 95.8092 305.741 97.9985C306.433 103.631 303.145 106.987 298.084 106.611C290.248 106.03 279.421 96.563 274.396 81.2515C273.63 78.9176 276.669 84.2992 284.044 85.8802C286.035 86.3071 288.127 86.2226 290.123 85.8205C309.229 81.9731 298.945 63.0691 306.698 63.0691C311.723 63.0691 311.005 68.5715 310.766 70.964C310.715 71.4727 313.442 69.6364 313.876 67.1361C314.594 61.3942 312.307 55.6204 303.827 54.6954C287.795 54.6954 296.845 76.0473 284.446 74.7918C273.692 73.703 272.96 63.3082 275.832 55.6524C278.379 48.8601 281.574 42.0951 281.574 34.3598C282.292 24.3116 269.372 9 254.058 9C237.308 9 225.708 24.3116 226.426 34.3598C226.426 42.0951 229.621 48.8601 232.168 55.6524C235.04 63.3082 234.308 73.703 223.554 74.7918C211.155 76.0473 220.205 54.6954 204.173 54.6954C195.693 55.6204 193.406 61.3942 194.124 67.1361C194.558 69.6364 197.285 71.4727 197.234 70.964C196.995 68.5715 196.277 63.0691 201.302 63.0691C209.055 63.0691 198.771 81.9731 217.877 85.8205C219.873 86.2226 221.965 86.3071 223.956 85.8802C231.331 84.2992 234.37 78.9176 233.604 81.2515C228.579 96.563 217.752 106.03 209.916 106.611C204.855 106.987 201.567 103.631 202.259 97.9985C202.528 95.8092 207.044 92.0173 205.609 92.0173C189.817 90.3426 191.565 115.702 209.916 115.702C219.516 115.702 225.469 109.482 229.536 106.611M278.464 106.611C272.283 102.249 263.944 88.4428 261.476 84.1223M278.464 106.611C272.777 102.597 265.205 90.6227 262.109 85.3693M261.476 84.1223C261.692 84.5416 261.903 84.9571 262.109 85.3693M261.476 84.1223C261.389 83.9704 261.308 83.831 261.233 83.7048M261.476 84.1223C261.402 83.9798 261.319 83.8418 261.233 83.7048M247.243 82.9261C247.02 83.3419 246.804 83.7538 246.593 84.1622M247.243 82.9261C247.422 82.6569 247.18 83.132 246.618 84.1172M247.243 82.9261C246.316 84.6606 245.486 86.3278 244.743 87.9507M229.536 106.611C235.717 102.249 244.124 88.4827 246.593 84.1622M229.536 106.611C235.739 102.234 244.183 88.3861 246.618 84.1172M246.593 84.1622C246.601 84.1471 246.61 84.1321 246.618 84.1172M246.593 84.1622C245.923 85.4574 245.308 86.7169 244.743 87.9507M261.407 84.1622C261.605 84.5075 261.84 84.913 262.109 85.3693M264.586 48.2359C260.279 48.2359 258.604 60.198 264.586 60.198C268.654 60.198 268.893 48.2359 264.586 48.2359ZM243.414 48.2359C247.721 48.2359 249.396 60.198 243.414 60.198C239.346 60.198 239.107 48.2359 243.414 48.2359Z" stroke="#B5ED2C" stroke-width="2"/>
</svg>
