<svg width="508" height="305" viewBox="0 0 508 305" fill="none" xmlns="http://www.w3.org/2000/svg">
<path d="M206 43H41C18.9086 43 1 60.9086 1 83V264C1 286.091 18.9086 304 41 304H467C489.091 304 507 286.091 507 264V83C507 60.9086 489.091 43 467 43H314.5" stroke="#B5ED2C" stroke-width="2"/>
<path d="M228.63 9.34891C233.896 4.21335 241.425 -0.83181 248.74 1.86309C241.275 3.84612 233.005 9.93082 232.536 18.2471C237.467 12.4675 245.54 13.8969 251.633 10.9026C250.43 17.7782 241.767 18.6935 239.047 24.603C236.321 30.5126 231.205 34.6821 228.312 40.6764C225.419 46.6707 217.843 48.8797 215.176 54.4051C220.98 53.8966 227.525 53.5859 233.127 56.6536C238.734 59.7158 243.364 55.422 249.324 53.8458C255.285 52.2638 263.462 52.1509 269.578 53.2695C275.689 54.3881 280.14 59.3372 285.903 57.3542C291.667 55.3768 298.067 52.0379 304.294 54.97C304.202 49.1961 295.018 47.1283 292.547 41.0153C290.076 34.908 284.081 31.264 281.552 25.1963C279.017 19.1341 269.822 17.6991 268.994 10.9026C274.874 14.0438 282.912 12.2302 287.512 18.2471C287.871 9.91952 278.872 3.90262 271.887 1.86309C277.755 -0.786613 284.173 3.17946 288.814 6.80655C293.455 10.4393 296.713 14.5636 300.967 18.6709C305.214 22.7782 308.669 27.1736 310.839 32.7612C313.004 38.3543 315.602 44.3995 317.014 50.4616C318.42 56.5294 311.644 61.9756 309.051 66.3937C306.464 70.8174 296.106 72.2524 296.771 77.5687C301.302 76.2637 305.967 77.0038 310.66 77.5687C313.588 74.1055 313.744 69.9134 317.459 66.6931C321.18 63.4785 320.405 58.0943 318.183 53.8401C323.727 54.2356 325.804 60.9869 324.548 65.7044C323.293 70.4219 320.26 72.9812 318.003 77.3993C315.752 81.8117 310.521 81.9416 306.794 84.5292C303.067 87.1167 294.59 83.3371 293.878 88.8681C299.647 85.128 308.038 87.5348 313.941 89.0545C319.844 90.5743 329.438 91.8568 327.442 99.6025C322.587 95.8285 314.161 91.4952 307.176 94.5065C300.185 97.5178 291.164 94.015 284.619 96.7776C292.992 94.9867 303.854 98.8341 309.097 105.648C314.346 112.461 320.231 124.71 308.924 128.416C312.998 122.393 310 117.506 306.435 112.766C302.871 108.032 300.903 101.105 293.866 104.676C286.824 108.241 280.493 103.546 273.624 105.252C278.855 108.472 287.906 104.45 293.444 108.501C298.976 112.552 299.057 121.094 295.18 125.732C291.297 130.371 285.186 134.02 279.989 130.676C283.351 130.416 285.429 126.263 289.248 126.721C288.461 121.563 294.983 112.501 286.933 113.727C278.884 114.953 276.031 110.32 269.555 109.224C263.086 108.122 256.951 107.642 250.464 109.196C243.977 110.744 241.199 114.778 233.075 113.687C224.944 112.591 232.259 121.794 231.379 126.721C235.135 126.388 237.01 130.506 240.638 130.676C236.176 134.026 228.804 130.484 225.158 126.015C221.512 121.551 221.368 112.693 226.605 108.501C231.848 104.314 241.321 108.173 247.004 105.817C240.731 102.687 233.844 108.597 226.709 104.727C219.574 100.857 217.56 108.422 213.874 113.02C210.182 117.614 207.01 122.602 211.704 128.416C200.159 125.162 205.778 112.778 211.079 105.772C216.385 98.772 227.687 94.981 236.009 96.7776C229.319 93.8737 220.534 97.5686 213.399 94.5573C206.264 91.5517 197.798 95.998 192.607 99.6025C191.698 91.6139 200.627 90.6478 206.623 88.9924C212.624 87.3427 220.922 85.258 226.75 88.8681C225.326 83.3484 217.878 87.1054 213.625 84.7325C209.371 82.354 204.875 81.3088 202.491 76.9586C200.107 72.6027 196.872 69.9756 196.085 65.1338C195.292 60.292 196.195 54.0152 202.444 53.8401C200.737 56.6536 201.299 60.4615 199.551 63.4446C203.382 67.2016 205.587 69.2976 208.087 74.3202C210.592 79.3428 218.619 75.8343 223.856 77.5687C224.394 71.0942 210.847 71.1959 211.125 64.0095C203.243 61.0491 202.549 50.7723 205.483 44.3769C208.422 37.9871 209.655 29.9759 214.464 24.3318C219.273 18.6878 223.364 14.4845 228.63 9.34891Z" stroke="#B5ED2C" stroke-width="2"/>
</svg>
