<svg width="508" height="305" viewBox="0 0 508 305" fill="none" xmlns="http://www.w3.org/2000/svg">
<path d="M289 43H467C489.091 43 507 60.9086 507 83V264C507 286.091 489.091 304 467 304H41C18.9086 304 1 286.091 1 264V83C1 60.9086 18.9086 43 41 43H226.5" stroke="#B5ED2C" stroke-width="2"/>
<path d="M295.6 136.19C313.364 131.933 318.533 104.597 315.453 105.68C312.477 106.727 291.837 106.051 268.434 104.461L274.077 10.8062C274.077 9.34334 271.151 9.13441 271.151 10.8062L264.046 104.155C262.451 104.04 260.847 103.922 259.24 103.8C226.222 101.292 192.838 91.9914 192.158 93.3507C186.934 103.799 199.734 132.468 223.504 137.026C238.759 139.952 270.315 142.251 295.6 136.19Z" stroke="#B5ED2C" stroke-width="2"/>
<path d="M265.509 12.06C255.163 41.744 251.626 57.789 260.703 87.7078C261.527 90.4245 258.404 92.0963 255.687 91.4694C233.663 85.6572 221.405 82.7508 201.145 74.1254C198.693 73.0813 200.727 69.641 202.608 67.6472C225.739 43.1254 234.106 34.9482 257.986 11.4331C261.747 7.72913 266.747 8.50738 265.509 12.06Z" stroke="#B5ED2C" stroke-width="2"/>
<path d="M282.854 34.2113C279.621 31.2912 277.378 34.8383 277.838 36.51C284.107 59.2882 280.137 71.8265 273.868 86.0367C272.946 88.1265 274.704 89.5417 277.002 89.1714C292.048 87.2906 298.903 83.738 313.782 83.738C315.663 83.738 317.162 81.6483 315.663 79.5586C302.605 61.3597 295.911 52.4102 282.854 34.2113Z" stroke="#B5ED2C" stroke-width="2"/>
</svg>
